name C:\Users\u0101727\Documents\MyRepositories\upper-imu-dc\Results\main_tracking\Case_31\kinematics.mot
datacolumns 10
datarows 56
range 0.50000000 1.05000000
endheader 
time	clav_prot	clav_elev	scapula_abduction	scapula_elevation	scapula_upward_rot	scapula_winging	plane_elv	shoulder_elv	axial_rot	
          0.50000000	        -24.24480920	         -3.90806767	        -14.48564114	         -4.29864473	         14.73480413	          4.86315628	        -24.95773324	         12.38168445	         39.58516861	
          0.51000000	        -24.23847210	         -3.96341042	        -14.49132629	         -4.30053010	         14.63688676	          4.89631605	        -24.75220876	         12.28041714	         40.05311022	
          0.52000000	        -24.22826000	         -3.97259160	        -14.50769325	         -4.29124862	         14.57591652	          4.91480633	        -24.51928795	         12.20977062	         40.51275377	
          0.53000000	        -24.18077983	         -3.97536171	        -14.45243525	         -4.27868104	         14.53037621	          4.92769586	        -24.24325467	         12.16800033	         40.94357344	
          0.54000000	        -24.12950971	         -3.97345346	        -14.38943026	         -4.26334212	         14.48890036	          4.93799525	        -23.90863086	         12.14777369	         41.30888832	
          0.55000000	        -24.08873447	         -3.96892440	        -14.34576483	         -4.24638070	         14.44636183	          4.94755941	        -23.50489315	         12.14410608	         41.56414430	
          0.56000000	        -24.05976903	         -3.96459285	        -14.32383472	         -4.22965449	         14.40130661	          4.95770901	        -23.02539939	         12.15448888	         41.66590680	
          0.57000000	        -24.03813440	         -3.96337661	        -14.31512495	         -4.21512917	         14.35381026	          4.96943057	        -22.46599380	         12.17846148	         41.57866176	
          0.58000000	        -24.01901857	         -3.96772988	        -14.31053618	         -4.20445290	         14.30416307	          4.98348346	        -21.82428418	         12.21714757	         41.27751440	
          0.59000000	        -23.99955870	         -3.97944187	        -14.30465023	         -4.19882280	         14.25239745	          5.00045324	        -21.09948681	         12.27279974	         40.74706302	
          0.60000000	        -23.97886222	         -3.99969384	        -14.29572314	         -4.19904296	         14.19834110	          5.02076816	        -20.29235934	         12.34838364	         39.97805192	
          0.61000000	        -23.95727020	         -4.02919164	        -14.28424831	         -4.20563843	         14.14184660	          5.04469537	        -19.40487429	         12.44720623	         38.96366296	
          0.62000000	        -23.93575077	         -4.06823772	        -14.27177921	         -4.21892252	         14.08298597	          5.07232271	        -18.43967932	         12.57250945	         37.69757057	
          0.63000000	        -23.91554760	         -4.11668726	        -14.26026293	         -4.23897312	         14.02217433	          5.10351666	        -17.39972025	         12.72689896	         36.17567831	
          0.64000000	        -23.89786897	         -4.17382718	        -14.25148430	         -4.26554314	         13.96025670	          5.13786082	        -16.28834629	         12.91161021	         34.40172592	
          0.65000000	        -23.88348115	         -4.23828469	        -14.24635516	         -4.29797915	         13.89856313	          5.17460750	        -15.10985122	         13.12583423	         32.39448092	
          0.66000000	        -23.87230259	         -4.30806647	        -14.24421011	         -4.33522226	         13.83889612	          5.21268505	        -13.87006595	         13.36642369	         30.19279323	
          0.67000000	        -23.86328354	         -4.38076165	        -14.24262300	         -4.37592069	         13.78339660	          5.25078838	        -12.57653485	         13.62820177	         27.85539204	
          0.68000000	        -23.85476968	         -4.45386652	        -14.23810678	         -4.41863005	         13.73427274	          5.28754774	        -11.23806645	         13.90484297	         25.45470609	
          0.69000000	        -23.84516253	         -4.52514831	        -14.22734810	         -4.46204761	         13.69347235	          5.32173085	         -9.86388130	         14.19001407	         23.06680747	
          0.70000000	        -23.83341636	         -4.59295789	        -14.20812313	         -4.50522063	         13.66244303	          5.35241204	         -8.46279269	         14.47834429	         20.76109337	
          0.71000000	        -23.81906635	         -4.65641675	        -14.17933426	         -4.54767602	         13.64207248	          5.37905722	         -7.04267485	         14.76592672	         18.59281106	
          0.72000000	        -23.80189066	         -4.71543664	        -14.14037476	         -4.58943759	         13.63277567	          5.40151572	         -5.61013733	         15.05032910	         16.59972262	
          0.73000000	        -23.78154609	         -4.77057214	        -14.09046791	         -4.63092338	         13.63462051	          5.41994319	         -4.17017888	         15.33029974	         14.80243999	
          0.74000000	        -23.75743735	         -4.82274396	        -14.02846837	         -4.67274573	         13.64740489	          5.43468962	         -2.72569777	         15.60539487	         13.20703714	
          0.75000000	        -23.72892114	         -4.87289725	        -13.95330049	         -4.71546174	         13.67065511	          5.44618267	         -1.27690960	         15.87569336	         11.80845102	
          0.76000000	        -23.69579342	         -4.92167163	        -13.86490625	         -4.75933864	         13.70357931	          5.45482647	          0.17911859	         16.14166000	         10.59364517	
          0.77000000	        -23.65880625	         -4.96915668	        -13.76519189	         -4.80420003	         13.74507272	          5.46091876	          1.64850151	         16.40410127	          9.54418278	
          0.78000000	        -23.61990669	         -5.01478877	        -13.65837767	         -4.84939997	         13.79386563	          5.46458260	          3.13987801	         16.66411447	          8.63830033	
          0.79000000	        -23.58203698	         -5.05742331	        -13.55046395	         -4.89394207	         13.84881673	          5.46572132	          4.66300965	         16.92298950	          7.85264243	
          0.80000000	        -23.54846984	         -5.09560167	        -13.44782270	         -4.93672998	         13.90925044	          5.46402428	          6.22680993	         17.18211505	          7.16371243	
          0.81000000	        -23.52183501	         -5.12798807	        -13.35529275	         -4.97689492	         13.97516245	          5.45905625	          7.83720576	         17.44300461	          6.54899458	
          0.82000000	        -23.50329184	         -5.15385970	        -13.27468153	         -5.01409949	         14.04713979	          5.45043425	          9.49540732	         17.70752096	          5.98770525	
          0.83000000	        -23.49232401	         -5.17346479	        -13.20453349	         -5.04870748	         14.12600529	          5.43803590	         11.19711576	         17.97821643	          5.46128156	
          0.84000000	        -23.48719154	         -5.18810018	        -13.14115206	         -5.08175680	         14.21237425	          5.42214457	         12.93291647	         18.25856646	          4.95387745	
          0.85000000	        -23.48567543	         -5.19987584	        -13.08012824	         -5.11474312	         14.30633733	          5.40345936	         14.68976025	         18.55291358	          4.45303052	
          0.86000000	        -23.48574881	         -5.21124131	        -13.01766075	         -5.14927801	         14.40738066	          5.38295947	         16.45314980	         18.86610719	          3.95022518	
          0.87000000	        -23.48597451	         -5.22441184	        -12.95129069	         -5.18671420	         14.51454090	          5.36166727	         18.20945717	         19.20296819	          3.44065519	
          0.88000000	        -23.48568405	         -5.24084563	        -12.88015741	         -5.22783497	         14.62670980	          5.34038616	         19.94776596	         19.56776715	          2.92157720	
          0.89000000	        -23.48499043	         -5.26091691	        -12.80488723	         -5.27269646	         14.74299095	          5.31949086	         21.66073081	         19.96385428	          2.38923144	
          0.90000000	        -23.48461016	         -5.28388467	        -12.72711095	         -5.32067013	         14.86300276	          5.29883305	         23.34429574	         20.39350622	          1.83508767	
          0.91000000	        -23.48539088	         -5.30815129	        -12.64849202	         -5.37064957	         14.98703049	          5.27778419	         24.99657683	         20.85798606	          1.24253784	
          0.92000000	        -23.48798275	         -5.33166293	        -12.57010739	         -5.42131493	         15.11594448	          5.25539151	         26.61652323	         21.35778539	          0.58508421	
          0.93000000	        -23.49267518	         -5.35229605	        -12.49218879	         -5.47136704	         15.25100123	          5.23056397	         28.20289228	         21.89284603	         -0.17330309	
          0.94000000	        -23.49960501	         -5.36817020	        -12.41455296	         -5.51971623	         15.39359594	          5.20225342	         29.75365767	         22.46267032	         -1.07521282	
          0.95000000	        -23.50885013	         -5.37792277	        -12.33679851	         -5.56565530	         15.54509444	          5.16960369	         31.26574482	         23.06620803	         -2.16417638	
          0.96000000	        -23.52038302	         -5.38092162	        -12.25826245	         -5.60898310	         15.70669116	          5.13206965	         32.73516198	         23.70162104	         -3.47694133	
          0.97000000	        -23.53416488	         -5.37728747	        -12.17823378	         -5.65000421	         15.87931815	          5.08945481	         34.15767567	         24.36597618	         -5.03466301	
          0.98000000	        -23.55007552	         -5.36765247	        -12.09585645	         -5.68935428	         16.06370347	          5.04180841	         35.53008585	         25.05489368	         -6.83459546	
          0.99000000	        -23.56797750	         -5.35265917	        -12.01027600	         -5.72765508	         16.26050830	          4.98920435	         36.85180600	         25.76238639	         -8.84427174	
          1.00000000	        -23.58766086	         -5.33239706	        -11.92053916	         -5.76513693	         16.47055379	          4.93146983	         38.12632387	         26.48100494	        -11.00048357	
          1.01000000	        -23.60895220	         -5.30607217	        -11.82574280	         -5.80143942	         16.69500841	          4.86801322	         39.36196673	         27.20241677	        -13.21460177	
          1.02000000	        -23.63139578	         -5.27185687	        -11.72445759	         -5.83550074	         16.93548427	          4.79773601	         40.57111491	         27.91826829	        -15.38398391	
          1.03000000	        -23.65552934	         -5.22758719	        -11.61679583	         -5.86614957	         17.19396739	          4.71933558	         41.76922447	         28.62109139	        -17.40701085	
          1.04000000	        -23.67885067	         -5.17201301	        -11.49728068	         -5.89276178	         17.47263309	          4.63177740	         42.97145859	         29.30502666	        -19.19707558	
          1.05000000	        -23.70355078	         -5.10292585	        -11.36901427	         -5.91414843	         17.77318005	          4.53384461	         44.18844063	         29.96651044	        -20.69420436	
